<svg xmlns="http://www.w3.org/2000/svg" viewBox="-1.9 -3.22 103 29.12" fill="none" color="#000000" stroke="#000000" stroke-width="1.8" stroke-linecap="round" stroke-linejoin="round">
<!-- generated by tools/logo.py; edit the geometry there -->
<g transform="translate(-2.6 -6.52) scale(1.3)" stroke-width="1.3846"><rect x="3" y="4" width="18" height="11" rx="3"/><path d="M2 15L22 15"/><path d="M15.05 15L3.55 20.4"/><path d="M8.95 15L20.45 20.4"/></g>
<g transform="translate(34.5 0)"><path d="M7.2766 8.2793A4 3 0 1 0 4 13A4 3 0 1 1 0.7234 17.7207"/></g>
<g transform="translate(45.5 0)"><path d="M0 10L0 20"/><circle cx="0" cy="6" r="0.9" fill="currentColor" stroke="none"/></g>
<g transform="translate(49.4 0)"><path d="M0 10L0 20"/><path d="M0 13.5A3.5 3.5 0 0 1 7 13.5V20"/></g>
<g transform="translate(59.8 0)"><circle cx="5" cy="15" r="5"/></g>
<g transform="translate(72.8 0)"><circle cx="5" cy="15" r="5"/><path d="M0 10L0 24"/></g>
<g transform="translate(85.8 0)"><path d="M0 10L0 20"/><circle cx="0" cy="6" r="0.9" fill="currentColor" stroke="none"/></g>
<g transform="translate(89.2 0)"><circle cx="5" cy="15" r="5"/><path d="M10 10L10 20"/></g>
</svg>
