<svg xmlns="http://www.w3.org/2000/svg" viewBox="-1.9 -3.22 134.5 25.12" fill="none" color="#ffffff" stroke="#ffffff" stroke-width="1.8" stroke-linecap="round" stroke-linejoin="round">
<!-- generated by tools/logo.py; edit the geometry there -->
<g transform="translate(-2.6 -6.52) scale(1.3)" stroke-width="1.3846"><rect x="3" y="4" width="18" height="11" rx="3"/><path d="M2 15L22 15"/><path d="M15.05 15L3.55 20.4"/><path d="M8.95 15L20.45 20.4"/></g>
<g transform="translate(34.5 0)"><circle cx="6" cy="13" r="6"/></g>
<g transform="translate(49.5 0)"><path d="M0 20V13.5A3.5 3.5 0 0 1 7 13.5V20"/><path d="M7 20V13.5A3.5 3.5 0 0 1 14 13.5V20"/></g>
<g transform="translate(66.9 0)"><circle cx="5" cy="15" r="5"/><path d="M10 10L10 20"/></g>
<g transform="translate(79.8 0)"><path d="M0 10L3.5 20L7 12L10.5 20L14 10"/></g>
<g transform="translate(96.7 0)"><path d="M0 6L0 20"/><path d="M0 13.5A3.5 3.5 0 0 1 7 13.5V20"/></g>
<g transform="translate(107.6 0)"><path d="M0 10L0 20"/><circle cx="0" cy="6" r="0.9" fill="currentColor" stroke="none"/></g>
<g transform="translate(111.5 0)"><path d="M3 6.5V17C3 19 4.3 20 6 20"/><path d="M0.5 10L6 10"/></g>
<g transform="translate(120.7 0)"><path d="M10 15A5 5 0 1 0 8.53 18.54"/><path d="M0 15L10 15"/></g>
</svg>
